<svg width="790" height="68" xmlns="http://www.w3.org/2000/svg" xmlns:xlink="http://www.w3.org/1999/xlink" xml:space="preserve" overflow="hidden"><defs><clipPath id="clip0"><rect x="220" y="640" width="790" height="68"/></clipPath></defs><g clip-path="url(#clip0)" transform="translate(-220 -640)"><text fill="#FFFFFF" font-family="Calibri,Calibri_MSFontService,sans-serif" font-weight="700" font-size="10" transform="matrix(1.93933 0 0 1.94115 251.237 658)">Conso</text><text fill="#FFFFFF" font-family="Calibri,Calibri_MSFontService,sans-serif" font-weight="700" font-size="10" transform="matrix(1.93933 0 0 1.94115 299.238 658)">r</text><text fill="#FFFFFF" font-family="Calibri,Calibri_MSFontService,sans-serif" font-weight="700" font-size="10" transform="matrix(1.93933 0 0 1.94115 305.687 658)">cio Exp</text><text fill="#FFFFFF" font-family="Calibri,Calibri_MSFontService,sans-serif" font-weight="700" font-size="10" transform="matrix(1.93933 0 0 1.94115 360.711 658)">r</text><text fill="#FFFFFF" font-family="Calibri,Calibri_MSFontService,sans-serif" font-weight="700" font-size="10" transform="matrix(1.93933 0 0 1.94115 367.216 658)">ess </text><text fill="#FFFFFF" font-family="Calibri,Calibri_MSFontService,sans-serif" font-weight="700" font-size="10" transform="matrix(1.93933 0 0 1.94115 396.08 658)">S</text><text fill="#FFFFFF" font-family="Calibri,Calibri_MSFontService,sans-serif" font-weight="700" font-size="10" transform="matrix(1.93933 0 0 1.94115 404.782 658)">AS</text><path d="M25.512 13.4026C25.512 6.35767 19.8009 0.646614 12.756 0.646614 5.71104 0.646614 0 6.35767 0 13.4026 0 19.7695 4.66468 25.0466 10.7629 26.0036L10.7629 17.0899 7.52404 17.0899 7.52404 13.4026 10.7629 13.4026 10.7629 10.5923C10.7629 7.39533 12.6673 5.62942 15.581 5.62942 16.9766 5.62942 18.4364 5.87854 18.4364 5.87854L18.4364 9.01773 16.8279 9.01773C15.2433 9.01773 14.7491 10.001 14.7491 11.0098L14.7491 13.4026 18.2869 13.4026 17.7213 17.0899 14.7491 17.0899 14.7491 26.0036C20.8474 25.0466 25.512 19.7695 25.512 13.4026Z" fill="#FFFFFF" transform="matrix(1 0 0 1.00094 220 640.342)"/><text fill="#FFFFFF" font-family="Calibri,Calibri_MSFontService,sans-serif" font-weight="700" font-size="10" transform="matrix(1.93933 0 0 1.94115 489.805 658)">c</text><text fill="#FFFFFF" font-family="Calibri,Calibri_MSFontService,sans-serif" font-weight="700" font-size="10" transform="matrix(1.93933 0 0 1.94115 497.621 658)">onso</text><text fill="#FFFFFF" font-family="Calibri,Calibri_MSFontService,sans-serif" font-weight="700" font-size="10" transform="matrix(1.93933 0 0 1.94115 535.62 658)">r</text><text fill="#FFFFFF" font-family="Calibri,Calibri_MSFontService,sans-serif" font-weight="700" font-size="10" transform="matrix(1.93933 0 0 1.94115 542.069 658)">cio</text><text fill="#FFFFFF" font-family="Calibri,Calibri_MSFontService,sans-serif" font-weight="700" font-size="10" transform="matrix(1.93933 0 0 1.94115 564.778 658)">e</text><text fill="#FFFFFF" font-family="Calibri,Calibri_MSFontService,sans-serif" font-weight="700" font-size="10" transform="matrix(1.93933 0 0 1.94115 573.996 658)">xp</text><text fill="#FFFFFF" font-family="Calibri,Calibri_MSFontService,sans-serif" font-weight="700" font-size="10" transform="matrix(1.93933 0 0 1.94115 592.82 658)">r</text><text fill="#FFFFFF" font-family="Calibri,Calibri_MSFontService,sans-serif" font-weight="700" font-size="10" transform="matrix(1.93933 0 0 1.94115 599.326 658)">ess</text><path d="M256.392 8.63795C256.245 8.26037 256.071 7.99072 255.787 7.7076 255.504 7.42446 255.235 7.24905 254.857 7.10226 254.571 6.99146 254.143 6.85961 253.354 6.82362 252.5 6.78481 252.244 6.77628 250.084 6.77628 247.923 6.77628 247.667 6.78481 246.814 6.82362 246.025 6.85961 245.596 6.99146 245.311 7.10226 244.933 7.24905 244.663 7.42446 244.38 7.7076 244.097 7.99072 243.923 8.26037 243.775 8.63795 243.665 8.92297 243.533 9.35147 243.496 10.1407 243.457 10.9939 243.449 11.2498 243.449 13.4105 243.449 15.5712 243.457 15.8271 243.496 16.6803 243.533 17.4693 243.665 17.8978 243.775 18.1831 243.923 18.5607 244.097 18.8303 244.38 19.1134 244.663 19.3966 244.933 19.5717 245.311 19.7185 245.596 19.8296 246.025 19.9615 246.814 19.9974 247.667 20.0361 247.923 20.0445 250.084 20.0445 252.244 20.0445 252.5 20.0361 253.354 19.9974 254.143 19.9615 254.571 19.8296 254.857 19.7185 255.235 19.5717 255.504 19.3966 255.787 19.1134 256.071 18.8303 256.245 18.5607 256.392 18.1831 256.503 17.8978 256.635 17.4693 256.67 16.6803 256.711 15.8271 256.718 15.5712 256.718 13.4105 256.718 11.2498 256.711 10.9939 256.67 10.1407 256.635 9.35147 256.503 8.92297 256.392 8.63795ZM250.084 17.5657C247.79 17.5657 245.928 15.7054 245.928 13.4105 245.928 11.1156 247.79 9.25512 250.084 9.25512 252.378 9.25512 254.24 11.1156 254.24 13.4105 254.24 15.7054 252.378 17.5657 250.084 17.5657ZM254.403 10.0619C253.867 10.0619 253.433 9.62726 253.433 9.09106 253.433 8.55462 253.867 8.11998 254.403 8.11998 254.94 8.11998 255.374 8.55462 255.374 9.09106 255.374 9.62726 254.94 10.0619 254.403 10.0619Z" fill="#FFFFFF" transform="matrix(1 0 0 1.00094 220 640.342)"/><path d="M250.09 0.542594C242.988 0.542594 237.232 6.29926 237.232 13.4006 237.232 20.502 242.988 26.2585 250.09 26.2585 257.191 26.2585 262.947 20.502 262.947 13.4006 262.947 6.29926 257.191 0.542594 250.09 0.542594ZM258.126 16.7468C258.087 17.6083 257.952 18.1963 257.752 18.711 257.544 19.2432 257.267 19.6944 256.817 20.1444 256.367 20.5943 255.917 20.871 255.384 21.078 254.87 21.2777 254.281 21.4144 253.419 21.4538 252.557 21.4932 252.281 21.5025 250.084 21.5025 247.887 21.5025 247.611 21.4932 246.748 21.4538 245.885 21.4144 245.298 21.2777 244.784 21.078 244.25 20.871 243.8 20.5943 243.351 20.1444 242.901 19.6944 242.623 19.2432 242.416 18.711 242.216 18.1963 242.08 17.6083 242.04 16.7468 242.001 15.8837 241.991 15.6081 241.991 13.4105 241.991 11.2127 242.001 10.9371 242.04 10.074 242.08 9.21275 242.216 8.62471 242.416 8.1098 242.623 7.57786 242.901 7.12664 243.351 6.67661 243.8 6.22657 244.25 5.95009 244.784 5.74318 245.298 5.54337 245.885 5.40653 246.748 5.36724 247.611 5.3277 247.887 5.31847 250.084 5.31847 252.281 5.31847 252.557 5.3277 253.419 5.36724 254.281 5.40653 254.87 5.54337 255.384 5.74318 255.917 5.95009 256.367 6.22657 256.817 6.67661 257.267 7.12664 257.544 7.57786 257.752 8.1098 257.952 8.62471 258.087 9.21275 258.126 10.074 258.167 10.9371 258.177 11.2127 258.177 13.4105 258.177 15.6081 258.167 15.8837 258.126 16.7468Z" fill="#FFFFFF" transform="matrix(1 0 0 1.00094 220 640.342)"/><path d="M252.781 13.4105C252.781 14.9002 251.574 16.1079 250.084 16.1079 248.594 16.1079 247.386 14.9002 247.386 13.4105 247.386 11.9208 248.594 10.7132 250.084 10.7132 251.574 10.7132 252.781 11.9208 252.781 13.4105Z" fill="#FFFFFF" transform="matrix(1 0 0 1.00094 220 640.342)"/><text fill="#FFFFFF" font-family="Calibri,Calibri_MSFontService,sans-serif" font-weight="700" font-size="10" transform="matrix(1.93933 0 0 1.94115 686.119 658)">@</text><text fill="#FFFFFF" font-family="Calibri,Calibri_MSFontService,sans-serif" font-weight="700" font-size="10" transform="matrix(1.93933 0 0 1.94115 703.098 658)">c</text><text fill="#FFFFFF" font-family="Calibri,Calibri_MSFontService,sans-serif" font-weight="700" font-size="10" transform="matrix(1.93933 0 0 1.94115 710.914 658)">onso</text><text fill="#FFFFFF" font-family="Calibri,Calibri_MSFontService,sans-serif" font-weight="700" font-size="10" transform="matrix(1.93933 0 0 1.94115 748.91 658)">r</text><text fill="#FFFFFF" font-family="Calibri,Calibri_MSFontService,sans-serif" font-weight="700" font-size="10" transform="matrix(1.93933 0 0 1.94115 755.361 658)">cio</text><text fill="#FFFFFF" font-family="Calibri,Calibri_MSFontService,sans-serif" font-weight="700" font-size="10" transform="matrix(1.93933 0 0 1.94115 778.07 658)">e</text><text fill="#FFFFFF" font-family="Calibri,Calibri_MSFontService,sans-serif" font-weight="700" font-size="10" transform="matrix(1.93933 0 0 1.94115 787.288 658)">xp</text><path d="M447.786 0.409078C440.659 0.409078 434.884 6.18538 434.884 13.3109 434.884 20.4362 440.659 26.2127 447.786 26.2127 454.912 26.2127 460.687 20.4362 460.687 13.3109 460.687 6.18538 454.912 0.409078 447.786 0.409078ZM451.118 20.8468 446.865 14.647 441.563 20.8468 440.07 20.8468 446.227 13.7164 440.103 4.78771 444.881 4.78771 448.884 10.641 453.938 4.78771 455.299 4.78771 449.509 11.5562 455.864 20.8468 451.118 20.8468Z" fill="#FFFFFF" transform="matrix(1 0 0 1.00094 220 640.342)"/><path d="M442.093 5.84947 451.781 19.8513 453.95 19.8513 444.276 5.84947 442.093 5.84947Z" fill="#FFFFFF" transform="matrix(1 0 0 1.00094 220 640.342)"/><text fill="#FFFFFF" font-family="Calibri,Calibri_MSFontService,sans-serif" font-weight="700" font-size="10" transform="matrix(1.93933 0 0 1.94115 871.829 658)">c</text><text fill="#FFFFFF" font-family="Calibri,Calibri_MSFontService,sans-serif" font-weight="700" font-size="10" transform="matrix(1.93933 0 0 1.94115 879.645 658)">onso</text><text fill="#FFFFFF" font-family="Calibri,Calibri_MSFontService,sans-serif" font-weight="700" font-size="10" transform="matrix(1.93933 0 0 1.94115 917.643 658)">r</text><text fill="#FFFFFF" font-family="Calibri,Calibri_MSFontService,sans-serif" font-weight="700" font-size="10" transform="matrix(1.93933 0 0 1.94115 924.094 658)">cio</text><text fill="#FFFFFF" font-family="Calibri,Calibri_MSFontService,sans-serif" font-weight="700" font-size="10" transform="matrix(1.93933 0 0 1.94115 946.804 658)">e</text><text fill="#FFFFFF" font-family="Calibri,Calibri_MSFontService,sans-serif" font-weight="700" font-size="10" transform="matrix(1.93933 0 0 1.94115 956.021 658)">xp</text><text fill="#FFFFFF" font-family="Calibri,Calibri_MSFontService,sans-serif" font-weight="700" font-size="10" transform="matrix(1.93933 0 0 1.94115 974.846 658)">r</text><text fill="#FFFFFF" font-family="Calibri,Calibri_MSFontService,sans-serif" font-weight="700" font-size="10" transform="matrix(1.93933 0 0 1.94115 981.352 658)">ess</text><path d="M632.659 0C625.256 0 619.256 6.00051 619.256 13.4025 619.256 20.8047 625.256 26.8052 632.659 26.8052 640.059 26.8052 646.061 20.8047 646.061 13.4025 646.061 6.00051 640.059 0 632.659 0ZM640.237 11.4897C640.237 11.6513 640.216 11.6596 640.051 11.6599 639.534 11.6606 639.025 11.5905 638.523 11.4755 637.658 11.2775 636.859 10.9258 636.118 10.4395 636.08 10.4142 636.039 10.36 635.998 10.3784 635.946 10.4023 635.973 10.4698 635.973 10.5174 635.971 12.5074 635.981 14.4974 635.969 16.4874 635.961 17.8786 635.519 19.1231 634.608 20.1835 633.64 21.3093 632.41 21.9633 630.936 22.1436 629.798 22.2823 628.72 22.0769 627.696 21.5707 627.531 21.4889 627.372 21.3937 627.225 21.2822L627.085 21.1579 627.083 21.1579C626.972 21.1101 626.883 21.0291 626.79 20.9558 625.877 20.2309 625.233 19.3175 624.878 18.2041 624.754 17.8168 624.678 17.4198 624.639 17.0146 624.612 16.721 624.608 16.4275 624.628 16.1348 624.672 15.4606 624.831 14.8129 625.111 14.196 625.402 13.5511 625.799 12.9792 626.303 12.4844 626.891 11.9082 627.574 11.4769 628.349 11.1975 628.836 11.0226 629.336 10.9168 629.852 10.8789 630.227 10.8514 630.597 10.8599 630.969 10.904 631.02 10.9099 631.049 10.9201 631.049 10.9797 631.045 11.1862 631.045 11.3926 631.043 11.5993 631.047 11.6028 631.051 11.6057 631.055 11.6075 631.078 11.6478 631.072 11.6921 631.072 11.7349 631.074 12.4522 631.074 13.1695 631.074 13.8868 631.074 13.9124 631.072 13.9375 631.072 13.9631 631.068 14.035 631.031 14.0589 630.964 14.0398 630.768 13.9839 630.566 13.9581 630.362 13.9474 630.048 13.9304 629.738 13.9754 629.445 14.0838 628.458 14.4479 627.861 15.1538 627.735 16.194 627.612 17.2196 628.016 18.0396 628.869 18.6303 628.941 18.6797 629.015 18.7259 629.081 18.7815 629.096 18.7962 629.114 18.8109 629.129 18.8256 629.327 18.9042 629.525 18.9837 629.736 19.0254 630.405 19.1579 631.035 19.0557 631.617 18.6977 632.286 18.2844 632.682 17.6793 632.821 16.9061 632.849 16.7598 632.852 16.6112 632.852 16.462L632.852 4.47428C632.852 4.2882 632.825 4.31139 633.012 4.31139 633.933 4.31046 634.854 4.31093 635.775 4.31093 635.796 4.31093 635.82 4.3107 635.841 4.31093 635.934 4.31258 635.936 4.31258 635.936 4.40799 635.936 4.62176 635.932 4.8353 635.975 5.04622 635.979 5.04954 635.983 5.05214 635.986 5.05427 636.016 5.08458 636.023 5.12341 636.031 5.1627 636.266 6.24316 636.834 7.10534 637.726 7.75635 637.782 7.79708 637.829 7.84797 637.881 7.89129 637.92 7.9242 637.959 7.95711 638 7.99002 638.143 8.07169 638.244 8.20308 638.37 8.30724 638.862 8.71845 639.419 9.00158 640.04 9.16161 640.094 9.17557 640.158 9.17462 640.197 9.22648 640.201 9.23003 640.203 9.23286 640.206 9.23499 640.243 9.27382 640.237 9.32259 640.237 9.36898 640.237 10.0759 640.237 10.7828 640.237 11.4897Z" fill="#FFFFFF" transform="matrix(1 0 0 1.00094 220 640.342)"/><path d="M625.52 17.5306C625.52 17.542 625.522 17.5524 625.524 17.5638 625.522 17.5425 625.52 17.5214 625.52 17.5003 625.52 17.5103 625.518 17.5207 625.52 17.5306Z" fill="#FFFFFF" transform="matrix(1 0 0 1.00094 220 640.342)"/><path d="M627.234 13.2197C627.327 13.1288 627.422 13.0419 627.521 12.9583 627.461 13.009 627.393 13.0438 627.335 13.0973 627.294 13.1342 627.273 13.1821 627.234 13.2197Z" fill="#FFFFFF" transform="matrix(1 0 0 1.00094 220 640.342)"/><path d="M633.704 17.5145C633.706 17.5041 633.704 17.4937 633.704 17.4833 633.704 17.4999 633.7 17.516 633.698 17.5325 633.698 17.5259 633.704 17.5209 633.704 17.5145Z" fill="#FFFFFF" transform="matrix(1 0 0 1.00094 220 640.342)"/><text fill="#FFFFFF" font-family="Calibri,Calibri_MSFontService,sans-serif" font-weight="700" font-size="10" transform="matrix(1.93933 0 0 1.94115 255.007 699)">Conso</text><text fill="#FFFFFF" font-family="Calibri,Calibri_MSFontService,sans-serif" font-weight="700" font-size="10" transform="matrix(1.93933 0 0 1.94115 303.009 699)">r</text><text fill="#FFFFFF" font-family="Calibri,Calibri_MSFontService,sans-serif" font-weight="700" font-size="10" transform="matrix(1.93933 0 0 1.94115 309.458 699)">cio Exp</text><text fill="#FFFFFF" font-family="Calibri,Calibri_MSFontService,sans-serif" font-weight="700" font-size="10" transform="matrix(1.93933 0 0 1.94115 364.482 699)">r</text><text fill="#FFFFFF" font-family="Calibri,Calibri_MSFontService,sans-serif" font-weight="700" font-size="10" transform="matrix(1.93933 0 0 1.94115 370.987 699)">ess </text><text fill="#FFFFFF" font-family="Calibri,Calibri_MSFontService,sans-serif" font-weight="700" font-size="10" transform="matrix(1.93933 0 0 1.94115 399.851 699)">S</text><text fill="#FFFFFF" font-family="Calibri,Calibri_MSFontService,sans-serif" font-weight="700" font-size="10" transform="matrix(1.93933 0 0 1.94115 408.553 699)">AS</text><path d="M16.1762 40.6729C9.05078 40.6729 3.27446 46.4492 3.27446 53.5747 3.27446 60.7001 9.05078 66.4764 16.1762 66.4764 23.3016 66.4764 29.0779 60.7001 29.0779 53.5747 29.0779 46.4492 23.3016 40.6729 16.1762 40.6729ZM11.9179 60.6241C11.0001 60.6138 10.0822 60.6162 9.1644 60.6229 9.01738 60.6239 8.97301 60.5869 8.97324 60.4348 8.97762 57.1642 8.97726 53.8935 8.97408 50.6228 8.97382 50.4876 9.00673 50.4394 9.15044 50.4403 10.0815 50.4461 11.0127 50.4481 11.9438 50.439 12.1226 50.4374 12.147 50.5068 12.1465 50.6602 12.142 52.2889 12.1438 53.9173 12.1438 55.5462 12.1438 57.1616 12.1411 58.7769 12.1476 60.3924 12.1483 60.5717 12.1037 60.6262 11.9179 60.6241ZM10.5628 49.0399C9.56388 49.0401 8.73366 48.2132 8.73034 47.2146 8.72703 46.2052 9.55667 45.3738 10.5667 45.375 11.5695 45.376 12.3959 46.1996 12.3969 47.1991 12.398 48.2132 11.5746 49.0395 10.5628 49.0399ZM24.0193 60.4139C24.0197 60.5807 23.973 60.6245 23.8087 60.6231 22.8904 60.6156 21.9724 60.6154 21.0541 60.6233 20.8926 60.6247 20.8576 60.5747 20.8582 60.422 20.8633 58.7261 20.8646 57.0303 20.859 55.3348 20.8578 54.9095 20.8307 54.4848 20.7114 54.0717 20.4919 53.3107 19.9469 52.9229 19.1496 52.9649 18.0609 53.0223 17.4946 53.5617 17.3558 54.6686 17.3226 54.9332 17.307 55.1977 17.3071 55.4639 17.3085 57.1135 17.3055 58.7626 17.3116 60.4119 17.3122 60.5764 17.2709 60.6247 17.1029 60.6233 16.1781 60.6154 15.2532 60.6162 14.3285 60.6229 14.1802 60.6239 14.1374 60.5838 14.1376 60.4341 14.1416 57.1684 14.1417 53.9034 14.1374 50.6379 14.1371 50.4764 14.1901 50.439 14.3428 50.4399 15.2211 50.4467 16.0994 50.4473 16.9777 50.4395 17.1393 50.4382 17.1811 50.4904 17.1775 50.6436 17.1685 51.0338 17.1745 51.4241 17.1745 51.8145 17.3864 51.5764 17.561 51.3345 17.7787 51.1294 18.4477 50.4989 19.2391 50.1808 20.1632 50.1886 20.6709 50.1929 21.173 50.2295 21.6625 50.3711 22.7822 50.695 23.4331 51.4658 23.7434 52.5598 23.9761 53.3799 24.0191 54.2224 24.0205 55.0672 24.0236 56.8494 24.0154 58.6316 24.0193 60.4139Z" fill="#FFFFFF" transform="matrix(1 0 0 1.00094 220 640.342)"/><text fill="#FFFFFF" font-family="Calibri,Calibri_MSFontService,sans-serif" font-weight="700" font-size="10" transform="matrix(1.93933 0 0 1.94115 492.661 699)">Comuni</text><text fill="#FFFFFF" font-family="Calibri,Calibri_MSFontService,sans-serif" font-weight="700" font-size="10" transform="matrix(1.93933 0 0 1.94115 553.119 699)">c</text><text fill="#FFFFFF" font-family="Calibri,Calibri_MSFontService,sans-serif" font-weight="700" font-size="10" transform="matrix(1.93933 0 0 1.94115 560.916 699)">aciones CEXP</text><path d="M252.112 56.1547 256.581 53.5749 252.112 50.9942 252.112 56.1547Z" fill="#FFFFFF" transform="matrix(1 0 0 1.00094 220 640.342)"/><path d="M253.833 40.6729C246.706 40.6729 240.93 46.4492 240.93 53.5747 240.93 60.7001 246.706 66.4764 253.833 66.4764 260.958 66.4764 266.733 60.7001 266.733 53.5747 266.733 46.4492 260.958 40.6729 253.833 40.6729ZM262.073 57.7151C261.875 58.4554 261.293 59.0381 260.552 59.2361 259.21 59.5955 253.833 59.5955 253.833 59.5955 253.833 59.5955 248.453 59.5955 247.111 59.2361 246.37 59.0381 245.788 58.4554 245.59 57.7151 245.23 56.3735 245.23 53.5747 245.23 53.5747 245.23 53.5747 245.23 50.7756 245.59 49.4342 245.788 48.6938 246.37 48.111 247.111 47.9132 248.453 47.5538 253.833 47.5538 253.833 47.5538 253.833 47.5538 259.21 47.5538 260.552 47.9132 261.293 48.111 261.875 48.6938 262.073 49.4342 262.434 50.7756 262.434 53.5747 262.434 53.5747 262.434 53.5747 262.434 56.3735 262.073 57.7151Z" fill="#FFFFFF" transform="matrix(1 0 0 1.00094 220 640.342)"/><text fill="#FFFFFF" font-family="Calibri,Calibri_MSFontService,sans-serif" font-weight="700" font-size="10" transform="matrix(1.93933 0 0 1.94115 727.054 699)">h</text><text fill="#FFFFFF" font-family="Calibri,Calibri_MSFontService,sans-serif" font-weight="700" font-size="10" transform="matrix(1.93933 0 0 1.94115 737.02 699)">tt</text><text fill="#FFFFFF" font-family="Calibri,Calibri_MSFontService,sans-serif" font-weight="700" font-size="10" transform="matrix(1.93933 0 0 1.94115 749.421 699)">p</text><text fill="#FFFFFF" font-family="Calibri,Calibri_MSFontService,sans-serif" font-weight="700" font-size="10" transform="matrix(1.93933 0 0 1.94115 759.472 699)">s</text><text fill="#FFFFFF" font-family="Calibri,Calibri_MSFontService,sans-serif" font-weight="700" font-size="10" transform="matrix(1.93933 0 0 1.94115 767.229 699)">://</text><text fill="#FFFFFF" font-family="Calibri,Calibri_MSFontService,sans-serif" font-weight="700" font-size="10" transform="matrix(1.93933 0 0 1.94115 788.467 699)">ww</text><text fill="#FFFFFF" font-family="Calibri,Calibri_MSFontService,sans-serif" font-weight="700" font-size="10" transform="matrix(1.93933 0 0 1.94115 816.85 699)">w</text><text fill="#FFFFFF" font-family="Calibri,Calibri_MSFontService,sans-serif" font-weight="700" font-size="10" transform="matrix(1.93933 0 0 1.94115 829.833 699)">.</text><text fill="#FFFFFF" font-family="Calibri,Calibri_MSFontService,sans-serif" font-weight="700" font-size="10" transform="matrix(1.93933 0 0 1.94115 834.88 699)">c</text><text fill="#FFFFFF" font-family="Calibri,Calibri_MSFontService,sans-serif" font-weight="700" font-size="10" transform="matrix(1.93933 0 0 1.94115 842.696 699)">onso</text><text fill="#FFFFFF" font-family="Calibri,Calibri_MSFontService,sans-serif" font-weight="700" font-size="10" transform="matrix(1.93933 0 0 1.94115 880.695 699)">r</text><text fill="#FFFFFF" font-family="Calibri,Calibri_MSFontService,sans-serif" font-weight="700" font-size="10" transform="matrix(1.93933 0 0 1.94115 887.145 699)">cio</text><text fill="#FFFFFF" font-family="Calibri,Calibri_MSFontService,sans-serif" font-weight="700" font-size="10" transform="matrix(1.93933 0 0 1.94115 909.855 699)">e</text><text fill="#FFFFFF" font-family="Calibri,Calibri_MSFontService,sans-serif" font-weight="700" font-size="10" transform="matrix(1.93933 0 0 1.94115 919.072 699)">xp</text><text fill="#FFFFFF" font-family="Calibri,Calibri_MSFontService,sans-serif" font-weight="700" font-size="10" transform="matrix(1.93933 0 0 1.94115 937.898 699)">r</text><text fill="#FFFFFF" font-family="Calibri,Calibri_MSFontService,sans-serif" font-weight="700" font-size="10" transform="matrix(1.93933 0 0 1.94115 944.402 699)">ess</text><text fill="#FFFFFF" font-family="Calibri,Calibri_MSFontService,sans-serif" font-weight="700" font-size="10" transform="matrix(1.93933 0 0 1.94115 969.614 699)">.</text><text fill="#FFFFFF" font-family="Calibri,Calibri_MSFontService,sans-serif" font-weight="700" font-size="10" transform="matrix(1.93933 0 0 1.94115 974.041 699)">c</text><text fill="#FFFFFF" font-family="Calibri,Calibri_MSFontService,sans-serif" font-weight="700" font-size="10" transform="matrix(1.93933 0 0 1.94115 981.858 699)">o</text><path d="M493.401 63.325C492.938 63.5335 492.461 63.7158 491.966 63.8624 492.441 63.4357 492.884 62.9732 493.295 62.4822L493.041 60.4835C492.083 61.9242 490.849 63.1491 489.387 64.0555L489.387 58.5925C490.605 58.6652 491.786 58.9291 492.899 59.3653L492.711 57.885C491.646 57.5357 490.531 57.3226 489.387 57.2611L489.387 53.4624 495.296 53.4624C495.246 54.5459 495.077 55.6005 494.802 56.6076L495.973 57.572C496.388 56.2684 496.638 54.8882 496.696 53.4624L500.208 53.4624C500.084 55.6515 499.345 57.6787 498.164 59.3758L499.192 60.2211C500.68 58.1218 501.556 55.5613 501.556 52.7983 501.556 49.4763 500.292 46.4441 498.217 44.1585L498.232 44.1424 497.759 43.6717C495.659 41.584 492.963 40.3097 490.06 40.0033 490.039 40.0011 490.017 39.9976 489.996 39.9955 489.818 39.9778 489.639 39.9652 489.461 39.955 489.422 39.9523 489.381 39.948 489.342 39.9462 489.267 39.9424 489.191 39.9424 489.115 39.9398 488.828 39.9168 488.532 39.9009 488.225 39.897 488.134 39.8952 488.045 39.9177 487.962 39.9515 487.946 39.9523 487.931 39.954 487.915 39.955 487.735 39.9652 487.558 39.9778 487.38 39.9955 487.358 39.9976 487.337 40.0011 487.316 40.0033 484.411 40.3097 481.717 41.584 479.617 43.6717L479.143 44.1424 479.159 44.1585C477.084 46.4441 475.819 49.4763 475.819 52.7983 475.819 56.121 477.084 59.1531 479.159 61.4384L479.143 61.4543 479.617 61.9254C481.717 64.0127 484.411 65.287 487.316 65.5934 487.337 65.5956 487.358 65.5991 487.38 65.6012 487.558 65.619 487.735 65.6314 487.915 65.6423 487.931 65.6431 487.946 65.6448 487.962 65.6458 488.043 65.6782 488.128 65.6997 488.218 65.6997L488.225 65.6997C488.532 65.6958 488.828 65.6799 489.115 65.657 489.191 65.6543 489.267 65.6543 489.342 65.651 489.381 65.6487 489.422 65.6444 489.461 65.6423 489.639 65.6314 489.818 65.619 489.996 65.6012 490.017 65.5991 490.039 65.5956 490.06 65.5934 491.278 65.465 492.461 65.1639 493.576 64.7052L493.401 63.325ZM500.208 52.1345 496.696 52.1345C496.615 50.1293 496.159 48.2107 495.387 46.4756 496.047 46.0714 496.675 45.6067 497.261 45.0816 498.965 46.974 500.053 49.4313 500.208 52.1345ZM496.314 44.1476C495.835 44.5708 495.325 44.9485 494.792 45.2827 494.041 43.9436 493.089 42.7437 491.966 41.7345 493.595 42.2176 495.073 43.0509 496.314 44.1476ZM489.387 41.5415C491.127 42.6196 492.546 44.1445 493.56 45.9517 492.259 46.5586 490.849 46.9173 489.387 47.0046L489.387 41.5415ZM489.387 48.3356C491.059 48.2466 492.67 47.8403 494.152 47.1439 494.819 48.6765 495.217 50.3674 495.296 52.1345L489.387 52.1345 489.387 48.3356ZM485.406 41.7357C484.281 42.7441 483.33 43.9426 482.582 45.2809 482.049 44.9472 481.539 44.5704 481.06 44.1476 482.301 43.0519 483.778 42.2189 485.406 41.7357ZM480.115 45.0816C480.699 45.606 481.325 46.0702 481.985 46.4734 481.213 48.2072 480.761 50.1263 480.677 52.1345L477.167 52.1345C477.32 49.4313 478.41 46.974 480.115 45.0816ZM477.167 53.4624 480.677 53.4624C480.761 55.4705 481.213 57.3895 481.985 59.1233 481.325 59.527 480.699 59.9907 480.115 60.5151 478.41 58.6227 477.32 56.166 477.167 53.4624ZM481.06 61.4497C481.539 61.0269 482.049 60.6499 482.582 60.3163 483.33 61.6545 484.281 62.8526 485.406 63.8614 483.778 63.3778 482.301 62.5448 481.06 61.4497ZM487.987 64.0559C486.247 62.9775 484.826 61.4547 483.811 59.6467 485.113 59.0395 486.525 58.6797 487.987 58.5925L487.987 64.0559ZM487.987 57.2611C486.317 57.3507 484.704 57.7574 483.22 58.4546 482.553 56.9233 482.159 55.2318 482.08 53.4624L487.987 53.4624 487.987 57.2611ZM487.987 52.1345 482.08 52.1345C482.159 50.3649 482.553 48.674 483.22 47.1425 484.704 47.8397 486.317 48.2466 487.987 48.3356L487.987 52.1345ZM487.987 47.0046C486.525 46.9173 485.113 46.5578 483.811 45.9504 484.826 44.1424 486.247 42.6192 487.987 41.5411L487.987 47.0046Z" fill="#FFFFFF" transform="matrix(1 0 0 1.00094 220 640.342)"/><path d="M499.995 62.0288 493.446 56.6384 494.513 65.0531 496.442 63.989 498.242 67.2523 499.867 66.3564 498.065 63.0929 499.995 62.0288Z" fill="#FFFFFF" transform="matrix(1 0 0 1.00094 220 640.342)"/></g></svg>